<mxfile host="app.diagrams.net" agent="Mozilla/5.0 (Windows NT 10.0; Win64; x64) AppleWebKit/537.36 (KHTML, like Gecko) Chrome/134.0.0.0 Safari/537.36" version="26.1.1">
  <diagram name="第 1 页" id="EAA-ffkvVjiq5FqYzdxf">
    <mxGraphModel dx="4107" dy="2207" grid="0" gridSize="10" guides="1" tooltips="1" connect="1" arrows="1" fold="1" page="0" pageScale="1" pageWidth="827" pageHeight="1169" math="0" shadow="0">
      <root>
        <mxCell id="0" />
        <mxCell id="1" parent="0" />
        <mxCell id="5-HjSUgHELFCou6OvuoI-37" style="edgeStyle=orthogonalEdgeStyle;rounded=0;orthogonalLoop=1;jettySize=auto;html=1;exitX=0.5;exitY=1;exitDx=0;exitDy=0;entryX=0.75;entryY=0;entryDx=0;entryDy=0;fillColor=#dae8fc;strokeColor=#6c8ebf;fontFamily=標楷體;" parent="1" source="NeP40_4VX6ySSnRjrQlt-3" target="5-HjSUgHELFCou6OvuoI-12" edge="1">
          <mxGeometry relative="1" as="geometry">
            <Array as="points">
              <mxPoint x="-332" y="359" />
              <mxPoint x="112" y="359" />
            </Array>
          </mxGeometry>
        </mxCell>
        <mxCell id="NeP40_4VX6ySSnRjrQlt-3" value="&lt;p style=&quot;language:zh-TW;margin-top:0pt;margin-bottom:0pt;margin-left:0in;&lt;br/&gt;text-align:left;direction:ltr;unicode-bidi:embed;mso-line-break-override:none;&lt;br/&gt;word-break:normal;punctuation-wrap:hanging&quot;&gt;&lt;span&gt;OPP&lt;/span&gt;&lt;span&gt;：&lt;/span&gt;&lt;span style=&quot;background-color: light-dark(#ffffff, var(--ge-dark-color, #121212));&quot;&gt;&lt;font&gt;透過Frontier平台&lt;/font&gt;&lt;/span&gt;&lt;/p&gt;&lt;p style=&quot;language:zh-TW;margin-top:0pt;margin-bottom:0pt;margin-left:0in;&lt;br/&gt;text-align:left;direction:ltr;unicode-bidi:embed;mso-line-break-override:none;&lt;br/&gt;word-break:normal;punctuation-wrap:hanging&quot;&gt;&lt;span style=&quot;background-color: light-dark(#ffffff, var(--ge-dark-color, #121212));&quot;&gt;&lt;font&gt;協助台灣傳統紡織業完成數位轉型&lt;/font&gt;&lt;/span&gt;&lt;/p&gt;" style="text;html=1;align=center;verticalAlign=middle;whiteSpace=wrap;rounded=1;fontSize=20;fillColor=default;labelBackgroundColor=default;labelBorderColor=none;strokeColor=default;fontFamily=標楷體;fontStyle=1" parent="1" vertex="1">
          <mxGeometry x="-494" y="96.5" width="324" height="85" as="geometry" />
        </mxCell>
        <mxCell id="5-HjSUgHELFCou6OvuoI-17" style="edgeStyle=orthogonalEdgeStyle;rounded=0;orthogonalLoop=1;jettySize=auto;html=1;exitX=0.5;exitY=1;exitDx=0;exitDy=0;dashed=1;fillColor=#dae8fc;strokeColor=#6c8ebf;fontFamily=標楷體;" parent="1" source="bhKgCIIadWL_iD3ARGDd-16" target="5-HjSUgHELFCou6OvuoI-12" edge="1">
          <mxGeometry relative="1" as="geometry">
            <mxPoint x="-18.5" y="-63" as="sourcePoint" />
          </mxGeometry>
        </mxCell>
        <mxCell id="5-HjSUgHELFCou6OvuoI-20" style="edgeStyle=orthogonalEdgeStyle;rounded=0;orthogonalLoop=1;jettySize=auto;html=1;exitX=0.5;exitY=1;exitDx=0;exitDy=0;entryX=0.5;entryY=0;entryDx=0;entryDy=0;dashed=1;fillColor=#dae8fc;strokeColor=#6c8ebf;fontFamily=標楷體;" parent="1" source="bhKgCIIadWL_iD3ARGDd-19" target="5-HjSUgHELFCou6OvuoI-14" edge="1">
          <mxGeometry relative="1" as="geometry">
            <mxPoint x="569" y="-63" as="sourcePoint" />
          </mxGeometry>
        </mxCell>
        <mxCell id="5-HjSUgHELFCou6OvuoI-21" style="edgeStyle=orthogonalEdgeStyle;rounded=0;orthogonalLoop=1;jettySize=auto;html=1;exitX=0.5;exitY=1;exitDx=0;exitDy=0;entryX=0.5;entryY=0;entryDx=0;entryDy=0;dashed=1;fillColor=#dae8fc;strokeColor=#6c8ebf;fontFamily=標楷體;" parent="1" source="bhKgCIIadWL_iD3ARGDd-20" target="5-HjSUgHELFCou6OvuoI-15" edge="1">
          <mxGeometry relative="1" as="geometry">
            <mxPoint x="827.9999999999995" y="-63" as="sourcePoint" />
          </mxGeometry>
        </mxCell>
        <mxCell id="5-HjSUgHELFCou6OvuoI-10" value="&lt;p style=&quot;language:zh-TW;margin-top:0pt;margin-bottom:0pt;margin-left:0in;&lt;br/&gt;text-align:left;direction:ltr;unicode-bidi:embed;mso-line-break-override:none;&lt;br/&gt;word-break:normal;punctuation-wrap:hanging&quot;&gt;&lt;/p&gt;&lt;ul&gt;&lt;li&gt;&lt;font&gt;平台功能維護與技術更新&lt;/font&gt;&lt;/li&gt;&lt;li&gt;&lt;span style=&quot;background-color: light-dark(#ffffff, var(--ge-dark-color, #121212));&quot;&gt;&lt;font&gt;傳統產業適應與進入平台困難&lt;/font&gt;&lt;/span&gt;&lt;/li&gt;&lt;li&gt;&lt;span style=&quot;background-color: light-dark(#ffffff, var(--ge-dark-color, #121212));&quot;&gt;&lt;font&gt;使用者無法增長與持續使用平台&lt;/font&gt;&lt;/span&gt;&lt;/li&gt;&lt;li&gt;&lt;font&gt;平台推廣、價值創造困難&lt;/font&gt;&lt;/li&gt;&lt;/ul&gt;&lt;p&gt;&lt;/p&gt;" style="text;html=1;align=left;verticalAlign=middle;whiteSpace=wrap;rounded=0;fontSize=18;fillColor=default;labelBackgroundColor=default;strokeColor=default;dashed=1;fontFamily=標楷體;fontStyle=1" parent="1" vertex="1">
          <mxGeometry x="-126" y="74" width="317" height="130" as="geometry" />
        </mxCell>
        <mxCell id="5-HjSUgHELFCou6OvuoI-12" value="&lt;p style=&quot;language:zh-TW;margin-top:0pt;margin-bottom:0pt;margin-left:0in;&lt;br/&gt;text-align:left;direction:ltr;unicode-bidi:embed;mso-line-break-override:none;&lt;br/&gt;word-break:normal;punctuation-wrap:hanging&quot;&gt;&lt;/p&gt;&lt;ul&gt;&lt;li style=&quot;text-align: left;&quot;&gt;&lt;span style=&quot;background-color: transparent;&quot;&gt;&lt;font&gt;增強市場影響力與大眾認知度&lt;/font&gt;&lt;/span&gt;&lt;/li&gt;&lt;li style=&quot;text-align: left;&quot;&gt;&lt;span style=&quot;background-color: transparent;&quot;&gt;&lt;font&gt;穩固平台價值&lt;/font&gt;&lt;/span&gt;&lt;/li&gt;&lt;li style=&quot;text-align: left;&quot;&gt;&lt;font&gt;成功建立數位轉型推動者形象&lt;/font&gt;&lt;/li&gt;&lt;li style=&quot;text-align: left;&quot;&gt;&lt;span style=&quot;background-color: transparent;&quot;&gt;&lt;font&gt;建立平台生態系統，吸引更多使用者加入平台&lt;/font&gt;&lt;/span&gt;&lt;/li&gt;&lt;li style=&quot;text-align: left;&quot;&gt;&lt;font&gt;保持技術領先、締造平台價值&lt;/font&gt;&lt;/li&gt;&lt;li style=&quot;text-align: left;&quot;&gt;&lt;font&gt;發展專業、創新服務&lt;/font&gt;&lt;/li&gt;&lt;li style=&quot;text-align: left;&quot;&gt;&lt;font&gt;平台管理數據與市場洞察能力提升&lt;/font&gt;&lt;/li&gt;&lt;/ul&gt;&lt;p&gt;&lt;/p&gt;" style="text;html=1;align=center;verticalAlign=middle;whiteSpace=wrap;rounded=0;fontSize=18;strokeColor=default;textShadow=1;fontFamily=標楷體;fontStyle=1" parent="1" vertex="1">
          <mxGeometry x="-126" y="415" width="317" height="233" as="geometry" />
        </mxCell>
        <mxCell id="5-HjSUgHELFCou6OvuoI-13" value="&lt;ul&gt;&lt;li&gt;&lt;font style=&quot;color: rgb(204, 0, 0);&quot;&gt;&lt;span style=&quot;background-color: transparent;&quot;&gt;&lt;font&gt;推動產業數位化以&lt;/font&gt;&lt;/span&gt;實踐社會、環境、企業三方可持續性發展&lt;/font&gt;&lt;/li&gt;&lt;li&gt;&lt;font&gt;&lt;font style=&quot;color: rgb(204, 0, 0);&quot;&gt;實現社會ESG，避免資源浪費與提升環保效益&lt;/font&gt;&lt;/font&gt;&lt;/li&gt;&lt;li&gt;&lt;font&gt;&lt;font style=&quot;color: rgb(204, 0, 0);&quot;&gt;推動產業數位化、智慧化、標準化生產與管理，增強市場整體競爭&lt;/font&gt;&lt;/font&gt;&lt;/li&gt;&lt;/ul&gt;" style="text;html=1;align=left;verticalAlign=top;whiteSpace=wrap;rounded=0;fontSize=18;strokeColor=default;fontFamily=標楷體;fontStyle=1" parent="1" vertex="1">
          <mxGeometry x="230" y="415" width="317" height="183" as="geometry" />
        </mxCell>
        <mxCell id="5-HjSUgHELFCou6OvuoI-14" value="&lt;p style=&quot;language:zh-TW;margin-top:0pt;margin-bottom:0pt;margin-left:0in;&lt;br/&gt;text-align:left;direction:ltr;unicode-bidi:embed;mso-line-break-override:none;&lt;br/&gt;word-break:normal;punctuation-wrap:hanging&quot;&gt;&lt;/p&gt;&lt;ul&gt;&lt;li&gt;&lt;font style=&quot;color: rgb(204, 0, 0);&quot;&gt;吸收使用者回饋來優化系統&lt;/font&gt;&lt;/li&gt;&lt;li&gt;保持專業技術領先&lt;/li&gt;&lt;li&gt;提供創新、實用平台功能&lt;/li&gt;&lt;li&gt;提升用戶體驗滿意度與忠誠度&lt;/li&gt;&lt;li&gt;獲得資源和優勢&lt;/li&gt;&lt;li&gt;提升組織凝聚力與專業能力&lt;/li&gt;&lt;li&gt;提升平台穩定性與可擴展性，確保長期可持續發展&lt;br&gt;&lt;/li&gt;&lt;/ul&gt;&lt;p&gt;&lt;/p&gt;" style="text;html=1;align=left;verticalAlign=top;whiteSpace=wrap;rounded=0;fontSize=18;strokeColor=default;fontFamily=標楷體;fontStyle=1" parent="1" vertex="1">
          <mxGeometry x="591" y="415" width="317" height="233" as="geometry" />
        </mxCell>
        <mxCell id="5-HjSUgHELFCou6OvuoI-15" value="&lt;p style=&quot;language:zh-TW;margin-top:0pt;margin-bottom:0pt;margin-left:0in;&lt;br/&gt;text-align:left;direction:ltr;unicode-bidi:embed;mso-line-break-override:none;&lt;br/&gt;word-break:normal;punctuation-wrap:hanging&quot;&gt;&lt;/p&gt;&lt;ul&gt;&lt;li&gt;優化布料設計、開發、生產等流程，提升品質降低營運成本&lt;/li&gt;&lt;li&gt;簡化銷售及訂購流程，降低雙方溝通成本&lt;/li&gt;&lt;li&gt;數位化、智慧化、標準化的高效布料管理模式&lt;/li&gt;&lt;li&gt;&lt;span style=&quot;background-color: transparent; color: light-dark(rgb(0, 0, 0), rgb(255, 255, 255));&quot;&gt;線上布料展示，提升商業競爭力&lt;/span&gt;&lt;/li&gt;&lt;li&gt;企業實現ESG，避免樣衣損耗及人力資源浪費&lt;/li&gt;&lt;/ul&gt;&lt;p&gt;&lt;/p&gt;" style="text;html=1;align=left;verticalAlign=top;whiteSpace=wrap;rounded=0;fontSize=18;strokeColor=default;fontFamily=標楷體;fontStyle=1" parent="1" vertex="1">
          <mxGeometry x="949" y="415" width="317" height="235" as="geometry" />
        </mxCell>
        <mxCell id="bhKgCIIadWL_iD3ARGDd-2" value="&lt;p style=&quot;language:zh-TW;margin-top:0pt;margin-bottom:0pt;margin-left:0in;&lt;br/&gt;text-align:left;direction:ltr;unicode-bidi:embed;mso-line-break-override:none;&lt;br/&gt;word-break:normal;punctuation-wrap:hanging&quot;&gt;&lt;/p&gt;&lt;ul&gt;&lt;li&gt;&lt;font&gt;團隊技術、資源、管理能力受限&lt;/font&gt;&lt;/li&gt;&lt;li&gt;&lt;font&gt;背負平台維護與技術創新重擔&lt;/font&gt;&lt;/li&gt;&lt;li&gt;&lt;font&gt;技術難領先以持續開發創新應用&lt;/font&gt;&lt;/li&gt;&lt;li&gt;&lt;font&gt;外界對於平台應用、技術不信任&lt;/font&gt;&lt;/li&gt;&lt;/ul&gt;&lt;p&gt;&lt;/p&gt;" style="text;html=1;align=left;verticalAlign=middle;whiteSpace=wrap;rounded=0;fontSize=18;fillColor=default;labelBackgroundColor=default;strokeColor=default;dashed=1;fontFamily=標楷體;fontStyle=1" parent="1" vertex="1">
          <mxGeometry x="591" y="74" width="317" height="130" as="geometry" />
        </mxCell>
        <mxCell id="bhKgCIIadWL_iD3ARGDd-5" value="&lt;p style=&quot;language:zh-TW;margin-top:0pt;margin-bottom:0pt;margin-left:0in;&lt;br/&gt;text-align:left;direction:ltr;unicode-bidi:embed;mso-line-break-override:none;&lt;br/&gt;word-break:normal;punctuation-wrap:hanging&quot;&gt;&lt;/p&gt;&lt;ul&gt;&lt;li&gt;生產、運營效率低，銷售業務受限&lt;/li&gt;&lt;li&gt;訂購過程產生過多淘汰的樣布浪費，違背企業ESG&lt;/li&gt;&lt;li&gt;實體布料管理與快速瀏覽資源困難&lt;/li&gt;&lt;li&gt;與客戶溝通受限，業務擴展難度大&lt;/li&gt;&lt;li&gt;電子商務興起，交易模式改變&lt;/li&gt;&lt;/ul&gt;&lt;p&gt;&lt;/p&gt;" style="text;html=1;align=left;verticalAlign=middle;whiteSpace=wrap;rounded=0;fontSize=18;fillColor=default;labelBackgroundColor=default;strokeColor=default;dashed=1;fontFamily=標楷體;fontStyle=1" parent="1" vertex="1">
          <mxGeometry x="949" y="68.5" width="317" height="170" as="geometry" />
        </mxCell>
        <mxCell id="bhKgCIIadWL_iD3ARGDd-9" style="edgeStyle=orthogonalEdgeStyle;rounded=0;orthogonalLoop=1;jettySize=auto;html=1;entryX=0.5;entryY=0;entryDx=0;entryDy=0;dashed=1;fillColor=#dae8fc;strokeColor=#6c8ebf;exitX=0.5;exitY=1;exitDx=0;exitDy=0;fontFamily=標楷體;" parent="1" source="bhKgCIIadWL_iD3ARGDd-21" target="bhKgCIIadWL_iD3ARGDd-11" edge="1">
          <mxGeometry relative="1" as="geometry">
            <mxPoint x="1091" y="-89" as="sourcePoint" />
          </mxGeometry>
        </mxCell>
        <mxCell id="bhKgCIIadWL_iD3ARGDd-11" value="&lt;p style=&quot;language:zh-TW;margin-top:0pt;margin-bottom:0pt;margin-left:0in;&lt;br/&gt;text-align:left;direction:ltr;unicode-bidi:embed;mso-line-break-override:none;&lt;br/&gt;word-break:normal;punctuation-wrap:hanging&quot;&gt;&lt;/p&gt;&lt;ul&gt;&lt;li&gt;&lt;span style=&quot;background-color: transparent;&quot;&gt;&lt;font&gt;提高採購速度與&lt;/font&gt;&lt;/span&gt;生產效率&lt;/li&gt;&lt;li&gt;企業實現ESG、減少資源浪費&lt;/li&gt;&lt;li&gt;&lt;font&gt;創新布料篩選模式，解決時地限制&lt;/font&gt;&lt;/li&gt;&lt;li&gt;&lt;font&gt;迅速與供應商交流，增強整體供應鏈協作效率與穩定性&lt;/font&gt;&lt;/li&gt;&lt;li&gt;&lt;span style=&quot;background-color: transparent;&quot;&gt;&lt;font&gt;快速獲取新款布料和設計，縮短產品上市時間，迅速適應需求變化、增加市場競爭力&lt;/font&gt;&lt;/span&gt;&lt;/li&gt;&lt;li&gt;&lt;font&gt;創新產品設計流程&lt;/font&gt;&lt;/li&gt;&lt;li&gt;&lt;font&gt;智慧化布料管理和應用&lt;/font&gt;&lt;/li&gt;&lt;/ul&gt;&lt;p&gt;&lt;/p&gt;" style="text;html=1;align=left;verticalAlign=top;whiteSpace=wrap;rounded=0;fontSize=18;strokeColor=default;fontFamily=標楷體;fontStyle=1" parent="1" vertex="1">
          <mxGeometry x="1307" y="415" width="317" height="251" as="geometry" />
        </mxCell>
        <mxCell id="bhKgCIIadWL_iD3ARGDd-12" value="&lt;ul&gt;&lt;li&gt;&lt;strong&gt;&lt;span&gt;&lt;font&gt;供應商關係維護、訂購溝通需求&lt;/font&gt;&lt;/span&gt;&lt;/strong&gt;&lt;/li&gt;&lt;li&gt;&lt;span style=&quot;line-height: 115%;&quot;&gt;&lt;font&gt;傳統購買流程面臨樣布運輸難題、影響後續成衣製作&lt;/font&gt;&lt;/span&gt;&lt;/li&gt;&lt;li&gt;&lt;span style=&quot;line-height: 115%;&quot;&gt;&lt;font&gt;少量購買者訂購布料困難&lt;/font&gt;&lt;/span&gt;&lt;/li&gt;&lt;li&gt;&lt;span style=&quot;line-height: 115%;&quot;&gt;&lt;font&gt;實體布料管理困難，設計資源、布料掌握度低&lt;/font&gt;&lt;/span&gt;&lt;/li&gt;&lt;li&gt;&lt;font&gt;設計靈感匱乏，拉長工作時間&lt;/font&gt;&lt;/li&gt;&lt;/ul&gt;" style="text;html=1;align=left;verticalAlign=middle;whiteSpace=wrap;rounded=0;fontSize=18;fillColor=default;labelBackgroundColor=default;strokeColor=default;dashed=1;fontFamily=標楷體;fontStyle=1" parent="1" vertex="1">
          <mxGeometry x="1307" y="59" width="317" height="189" as="geometry" />
        </mxCell>
        <mxCell id="bhKgCIIadWL_iD3ARGDd-16" value="&lt;font&gt;Frontier數位&lt;/font&gt;&lt;div&gt;&lt;font&gt;布料雲端平台&lt;/font&gt;&lt;/div&gt;" style="ellipse;whiteSpace=wrap;html=1;dashed=1;fontFamily=標楷體;fontSize=20;fontStyle=1" parent="1" vertex="1">
          <mxGeometry x="-54" y="-174" width="173" height="103" as="geometry" />
        </mxCell>
        <mxCell id="bhKgCIIadWL_iD3ARGDd-18" value="&lt;font&gt;時代背景&lt;/font&gt;" style="ellipse;whiteSpace=wrap;html=1;dashed=1;fontFamily=標楷體;fontSize=20;fontStyle=1" parent="1" vertex="1">
          <mxGeometry x="302" y="-174" width="173" height="103" as="geometry" />
        </mxCell>
        <mxCell id="bhKgCIIadWL_iD3ARGDd-19" value="&lt;span&gt;Frontier團隊&lt;/span&gt;" style="ellipse;whiteSpace=wrap;html=1;fontFamily=標楷體;fontSize=20;fontStyle=1" parent="1" vertex="1">
          <mxGeometry x="663" y="-174" width="173" height="103" as="geometry" />
        </mxCell>
        <mxCell id="KEzRh2t4qIgkN6l6Qwi_-4" style="edgeStyle=none;curved=1;rounded=0;orthogonalLoop=1;jettySize=auto;html=1;exitX=0.5;exitY=1;exitDx=0;exitDy=0;fontSize=12;startSize=8;endSize=8;" edge="1" parent="1" source="bhKgCIIadWL_iD3ARGDd-20" target="bhKgCIIadWL_iD3ARGDd-20">
          <mxGeometry relative="1" as="geometry">
            <mxPoint x="1100.0850982666016" y="-78.50478617350245" as="targetPoint" />
          </mxGeometry>
        </mxCell>
        <mxCell id="bhKgCIIadWL_iD3ARGDd-20" value="&lt;font&gt;布料供應商&lt;/font&gt;" style="ellipse;whiteSpace=wrap;html=1;fontFamily=標楷體;fontSize=20;fontStyle=1" parent="1" vertex="1">
          <mxGeometry x="1021" y="-174" width="173" height="103" as="geometry" />
        </mxCell>
        <mxCell id="bhKgCIIadWL_iD3ARGDd-21" value="&lt;font&gt;布料購買商&lt;/font&gt;" style="ellipse;whiteSpace=wrap;html=1;fontFamily=標楷體;fontSize=20;fontStyle=1" parent="1" vertex="1">
          <mxGeometry x="1379" y="-168" width="173" height="103" as="geometry" />
        </mxCell>
        <mxCell id="bhKgCIIadWL_iD3ARGDd-24" style="edgeStyle=orthogonalEdgeStyle;rounded=0;orthogonalLoop=1;jettySize=auto;html=1;entryX=0.706;entryY=-0.002;entryDx=0;entryDy=0;fillColor=#dae8fc;strokeColor=#6c8ebf;fontFamily=標楷體;entryPerimeter=0;" parent="1" edge="1">
          <mxGeometry relative="1" as="geometry">
            <Array as="points">
              <mxPoint x="-295" y="316" />
              <mxPoint x="816" y="316" />
            </Array>
            <mxPoint x="-295" y="182" as="sourcePoint" />
            <mxPoint x="815.7820000000002" y="415.00400000000013" as="targetPoint" />
          </mxGeometry>
        </mxCell>
        <mxCell id="bhKgCIIadWL_iD3ARGDd-25" style="edgeStyle=orthogonalEdgeStyle;rounded=0;orthogonalLoop=1;jettySize=auto;html=1;entryX=0.5;entryY=0;entryDx=0;entryDy=0;fillColor=#dae8fc;strokeColor=#6c8ebf;exitX=0.764;exitY=0.922;exitDx=0;exitDy=0;exitPerimeter=0;fontFamily=標楷體;" parent="1" source="bhKgCIIadWL_iD3ARGDd-16" target="NeP40_4VX6ySSnRjrQlt-3" edge="1">
          <mxGeometry relative="1" as="geometry">
            <Array as="points">
              <mxPoint x="53" y="-38" />
              <mxPoint x="-325" y="-38" />
            </Array>
            <mxPoint x="53" y="-79" as="sourcePoint" />
            <mxPoint x="-246" y="74" as="targetPoint" />
          </mxGeometry>
        </mxCell>
        <mxCell id="bhKgCIIadWL_iD3ARGDd-28" style="edgeStyle=orthogonalEdgeStyle;rounded=0;orthogonalLoop=1;jettySize=auto;html=1;fillColor=#dae8fc;strokeColor=#6c8ebf;exitX=1;exitY=1;exitDx=0;exitDy=0;fontFamily=標楷體;entryX=0.549;entryY=-0.006;entryDx=0;entryDy=0;entryPerimeter=0;" parent="1" source="bhKgCIIadWL_iD3ARGDd-18" target="NeP40_4VX6ySSnRjrQlt-3" edge="1">
          <mxGeometry relative="1" as="geometry">
            <Array as="points">
              <mxPoint x="450" y="-21" />
              <mxPoint x="-316" y="-21" />
              <mxPoint x="-316" y="94" />
              <mxPoint x="-316" y="94" />
            </Array>
            <mxPoint x="343" y="-64" as="sourcePoint" />
            <mxPoint x="-307" y="94" as="targetPoint" />
          </mxGeometry>
        </mxCell>
        <mxCell id="bhKgCIIadWL_iD3ARGDd-29" style="edgeStyle=orthogonalEdgeStyle;rounded=0;orthogonalLoop=1;jettySize=auto;html=1;fillColor=#dae8fc;strokeColor=#6c8ebf;exitX=1;exitY=1;exitDx=0;exitDy=0;fontFamily=標楷體;" parent="1" source="bhKgCIIadWL_iD3ARGDd-19" edge="1">
          <mxGeometry relative="1" as="geometry">
            <Array as="points">
              <mxPoint x="811" y="2" />
              <mxPoint x="-296" y="2" />
            </Array>
            <mxPoint x="73" y="-71" as="sourcePoint" />
            <mxPoint x="-296" y="96" as="targetPoint" />
          </mxGeometry>
        </mxCell>
        <mxCell id="bhKgCIIadWL_iD3ARGDd-30" style="edgeStyle=orthogonalEdgeStyle;rounded=0;orthogonalLoop=1;jettySize=auto;html=1;fillColor=#dae8fc;strokeColor=#6c8ebf;exitX=1;exitY=1;exitDx=0;exitDy=0;fontFamily=標楷體;" parent="1" source="bhKgCIIadWL_iD3ARGDd-20" edge="1">
          <mxGeometry relative="1" as="geometry">
            <Array as="points">
              <mxPoint x="1169" y="22" />
              <mxPoint x="-276" y="22" />
            </Array>
            <mxPoint x="83" y="-61" as="sourcePoint" />
            <mxPoint x="-276" y="96" as="targetPoint" />
          </mxGeometry>
        </mxCell>
        <mxCell id="bhKgCIIadWL_iD3ARGDd-31" style="edgeStyle=orthogonalEdgeStyle;rounded=0;orthogonalLoop=1;jettySize=auto;html=1;entryX=0.734;entryY=0.011;entryDx=0;entryDy=0;fillColor=#dae8fc;strokeColor=#6c8ebf;exitX=1;exitY=1;exitDx=0;exitDy=0;fontFamily=標楷體;entryPerimeter=0;" parent="1" edge="1">
          <mxGeometry relative="1" as="geometry">
            <Array as="points">
              <mxPoint x="1527" y="42.06" />
              <mxPoint x="-257" y="42.06" />
              <mxPoint x="-257" y="96.06" />
            </Array>
            <mxPoint x="1526.6769330049542" y="-81.03126367685047" as="sourcePoint" />
            <mxPoint x="-256.1840000000001" y="96.49500000000006" as="targetPoint" />
          </mxGeometry>
        </mxCell>
        <mxCell id="bhKgCIIadWL_iD3ARGDd-32" value="&lt;font&gt;&lt;b&gt;行動者&lt;/b&gt;&lt;/font&gt;" style="text;html=1;align=center;verticalAlign=middle;resizable=0;points=[];autosize=1;strokeColor=none;fillColor=none;fontSize=30;fontFamily=標楷體;flipH=0;flipV=1;" parent="1" vertex="1">
          <mxGeometry x="-386" y="-153" width="108" height="48" as="geometry" />
        </mxCell>
        <mxCell id="bhKgCIIadWL_iD3ARGDd-33" value="&lt;font&gt;&lt;b&gt;目標&lt;/b&gt;&lt;/font&gt;" style="text;html=1;align=center;verticalAlign=middle;resizable=0;points=[];autosize=1;strokeColor=none;fillColor=none;fontSize=30;fontFamily=標楷體;flipH=0;flipV=1;" parent="1" vertex="1">
          <mxGeometry x="-371" y="384" width="78" height="48" as="geometry" />
        </mxCell>
        <mxCell id="KEzRh2t4qIgkN6l6Qwi_-2" style="edgeStyle=none;curved=1;rounded=0;orthogonalLoop=1;jettySize=auto;html=1;exitX=0.5;exitY=1;exitDx=0;exitDy=0;fontSize=12;startSize=8;endSize=8;fontFamily=標楷體;" edge="1" parent="1" source="5-HjSUgHELFCou6OvuoI-14" target="5-HjSUgHELFCou6OvuoI-14">
          <mxGeometry relative="1" as="geometry" />
        </mxCell>
        <mxCell id="KEzRh2t4qIgkN6l6Qwi_-3" value="&lt;span style=&quot;color: rgb(0, 0, 0); font-family: 標楷體; font-size: 20px; font-style: normal; font-variant-ligatures: normal; font-variant-caps: normal; font-weight: 700; letter-spacing: normal; orphans: 2; text-align: center; text-indent: 0px; text-transform: none; widows: 2; word-spacing: 0px; -webkit-text-stroke-width: 0px; white-space: normal; background-color: rgb(255, 255, 255); text-decoration-thickness: initial; text-decoration-style: initial; text-decoration-color: initial; display: inline !important; float: none;&quot;&gt;（設計師、品牌商）&lt;/span&gt;" style="text;whiteSpace=wrap;html=1;" vertex="1" parent="1">
          <mxGeometry x="1374" y="-232" width="183" height="46" as="geometry" />
        </mxCell>
        <mxCell id="KEzRh2t4qIgkN6l6Qwi_-8" style="edgeStyle=none;curved=1;rounded=0;orthogonalLoop=1;jettySize=auto;html=1;exitX=0.75;exitY=0;exitDx=0;exitDy=0;fontSize=12;startSize=8;endSize=8;" edge="1" parent="1" source="5-HjSUgHELFCou6OvuoI-13" target="5-HjSUgHELFCou6OvuoI-13">
          <mxGeometry relative="1" as="geometry" />
        </mxCell>
        <mxCell id="KEzRh2t4qIgkN6l6Qwi_-10" style="edgeStyle=orthogonalEdgeStyle;rounded=0;orthogonalLoop=1;jettySize=auto;html=1;exitX=0.5;exitY=1;exitDx=0;exitDy=0;entryX=0.5;entryY=0;entryDx=0;entryDy=0;dashed=1;fillColor=#dae8fc;strokeColor=#6c8ebf;fontFamily=標楷體;" edge="1" parent="1" target="5-HjSUgHELFCou6OvuoI-13">
          <mxGeometry relative="1" as="geometry">
            <mxPoint x="390.37" y="-71" as="sourcePoint" />
            <mxPoint x="390.37" y="374" as="targetPoint" />
          </mxGeometry>
        </mxCell>
        <mxCell id="KEzRh2t4qIgkN6l6Qwi_-11" style="edgeStyle=orthogonalEdgeStyle;rounded=0;orthogonalLoop=1;jettySize=auto;html=1;fillColor=#dae8fc;strokeColor=#6c8ebf;fontFamily=標楷體;entryX=0.845;entryY=-0.008;entryDx=0;entryDy=0;entryPerimeter=0;" edge="1" parent="1">
          <mxGeometry relative="1" as="geometry">
            <Array as="points">
              <mxPoint x="-314" y="339" />
              <mxPoint x="494" y="339" />
            </Array>
            <mxPoint x="-314" y="182" as="sourcePoint" />
            <mxPoint x="493.8649999999998" y="413.0559999999998" as="targetPoint" />
          </mxGeometry>
        </mxCell>
        <mxCell id="KEzRh2t4qIgkN6l6Qwi_-12" style="edgeStyle=orthogonalEdgeStyle;rounded=0;orthogonalLoop=1;jettySize=auto;html=1;fillColor=#dae8fc;strokeColor=#6c8ebf;fontFamily=標楷體;" edge="1" parent="1">
          <mxGeometry relative="1" as="geometry">
            <Array as="points">
              <mxPoint x="-275" y="292" />
              <mxPoint x="1201" y="292" />
            </Array>
            <mxPoint x="-275" y="182" as="sourcePoint" />
            <mxPoint x="1201" y="415" as="targetPoint" />
          </mxGeometry>
        </mxCell>
        <mxCell id="bhKgCIIadWL_iD3ARGDd-1" value="&lt;p style=&quot;language:zh-TW;margin-top:0pt;margin-bottom:0pt;margin-left:0in;&lt;br/&gt;text-align:left;direction:ltr;unicode-bidi:embed;mso-line-break-override:none;&lt;br/&gt;word-break:normal;punctuation-wrap:hanging&quot;&gt;&lt;/p&gt;&lt;ul&gt;&lt;li&gt;&lt;span style=&quot;background-color: light-dark(#ffffff, var(--ge-dark-color, #121212));&quot;&gt;&lt;font style=&quot;color: rgb(204, 0, 0);&quot;&gt;企業轉型困境與技術創新需求&lt;/font&gt;&lt;/span&gt;&lt;/li&gt;&lt;li&gt;&lt;font style=&quot;color: rgb(204, 0, 0);&quot;&gt;全球疫情使企業經營面臨挑戰&lt;/font&gt;&lt;/li&gt;&lt;li&gt;&lt;font style=&quot;color: rgb(204, 0, 0);&quot;&gt;數位化、企業ESG經營議題&lt;/font&gt;&lt;/li&gt;&lt;/ul&gt;&lt;p&gt;&lt;/p&gt;" style="text;html=1;align=left;verticalAlign=middle;whiteSpace=wrap;rounded=0;fontSize=18;fillColor=default;labelBackgroundColor=default;strokeColor=default;dashed=1;fontFamily=標楷體;fontStyle=1" parent="1" vertex="1">
          <mxGeometry x="232" y="74" width="317" height="130" as="geometry" />
        </mxCell>
        <mxCell id="KEzRh2t4qIgkN6l6Qwi_-15" style="edgeStyle=orthogonalEdgeStyle;rounded=0;orthogonalLoop=1;jettySize=auto;html=1;fillColor=#dae8fc;strokeColor=#6c8ebf;fontFamily=標楷體;exitX=0.731;exitY=0.994;exitDx=0;exitDy=0;exitPerimeter=0;" edge="1" parent="1" source="NeP40_4VX6ySSnRjrQlt-3">
          <mxGeometry relative="1" as="geometry">
            <Array as="points">
              <mxPoint x="-257" y="268" />
              <mxPoint x="1557" y="268" />
            </Array>
            <mxPoint x="-255" y="183" as="sourcePoint" />
            <mxPoint x="1557" y="415.5" as="targetPoint" />
          </mxGeometry>
        </mxCell>
      </root>
    </mxGraphModel>
  </diagram>
</mxfile>
